<svg width="426" height="67" viewBox="0 0 426 67" fill="none" xmlns="http://www.w3.org/2000/svg">
<g clip-path="url(#clip0_1_2)">
<path d="M0.713196 3.39445V66.6288H33.5934V3.39445H0.713196Z" fill="#5E17EB"/>
<path d="M45.3321 66.6288H108.567L108.384 0.956955L76.7696 24.8945L45.1551 0.956955L45.3321 66.6288Z" fill="#5E17EB"/>
<path d="M150.387 3.39445H120.121V66.6288H150.658V54.6132C164.746 54.6132 176.22 43.0507 176.22 29.0507C176.22 14.7747 164.569 3.39445 150.387 3.39445Z" fill="#5E17EB"/>
<path d="M186.331 3.30591V66.5403H238.727V45.2174H225.628V42.509H238.727V27.332H225.628V24.6236H238.727V3.30591H186.331Z" fill="#5E17EB"/>
<path d="M280.724 3.39445H250.37C250.37 52.2642 250.37 -3.38159 250.37 66.7174H305.927L296.62 49.2851C302.677 44.5872 306.469 37.3632 306.469 29.1392C306.469 14.8684 294.906 3.39445 280.724 3.39445Z" fill="#5E17EB"/>
<path d="M316.399 3.39445V66.6288H349.279V3.39445H316.399Z" fill="#5E17EB"/>
<path d="M358.492 3.30591L376.195 34.9205L358.492 66.5403H425.518L407.815 34.9205L425.518 3.30591H358.492Z" fill="#5E17EB"/>
</g>
<defs>
<clipPath id="clip0_1_2">
<rect width="426" height="67" fill="white"/>
</clipPath>
</defs>
</svg>
